<?xml version="1.0" encoding="UTF-8"?>
<svg xmlns="http://www.w3.org/2000/svg" version="1.0" width="125px" height="45px" viewBox="5.5 5.05 1337.4 468.95">
  <path fill="#d53617" d="M43 6.9C26.1 13.2 16.1 23.1 8.9 41l-3.4 8.5V240c0 182.7.1 190.7 1.8 195.5 5.9 15.9 16.6 29.4 27.2 34.3 2.8 1.3 5.8 2.7 6.7 3.3 2.3 1.2 332.5 1.2 333.2 0 .3-.5 1.8-1.2 3.3-1.6 2.6-.6 16.3-10.2 16.3-11.4 0-.4 1.6-2.3 3.5-4.4 2.8-3.2 7.2-11.2 10.5-19.2.4-1.1 1.5-5.9 2.4-10.7 1.4-7.7 1.6-27.8 1.6-185.4 0-198.7.4-186.9-7.3-204.3-4-9.3-13.4-19.7-22.2-24.8-11.6-6.8 1.6-6.3-175.2-6.2C61 5.2 47.1 5.4 43 6.9zm270.9 89.6c6.6 3.6 13.7 10.6 16.2 16 5.1 10.8 4.9 5.8 4.9 127.9 0 81.7-.3 115-1.1 117.5-2.6 8.3-5.7 13.8-10.5 18.7-6.7 6.9-12.7 9.5-23.1 10.2-9.8.6-12.7-.7-13.7-6.2-.4-1.9-1.3-4.8-2.1-6.3s-1.5-3.8-1.5-5c0-1.2-.4-2.4-.9-2.7-.5-.3-1.2-2.3-1.6-4.3-.4-2.1-1-4.3-1.4-4.8-.5-.6-1.8-4.4-3.1-8.5-1.2-4.1-2.6-8.4-3.1-9.5-.5-1.1-2.6-7.3-4.8-13.8-2.1-6.5-4.2-12.2-4.8-12.8-.5-.5-23-1-55.5-1.2l-54.6-.2-1.5 3c-.9 1.6-4.5 12-8.2 23-3.6 11-6.9 20.7-7.4 21.5-.5.9-1.2 3.1-1.6 5-.4 1.9-1.1 3.9-1.5 4.5-.4.5-1.1 2.6-1.5 4.5-.4 1.9-1.1 3.9-1.5 4.5-.4.5-1.1 2.5-1.5 4.3-.3 1.8-1.6 3.7-2.8 4.3-3.2 1.8-18.6.5-23.4-1.9-6.1-3.2-13.7-10.6-16.7-16.3C80 357 80 357.1 80 239.8c0-112.3.1-115 4.2-124.3 4.3-9.7 12-17.3 21-20.5 5.1-1.9 8.6-1.9 104.3-1.7l99 .2 5.4 3z"></path>
  <path fill="#d53617" d="M204.5 185.1c-6.1 1.8-11 8.2-16.9 21.9-.8 1.9-5.8 16.5-11 32.5-5.3 15.9-10 29.7-10.5 30.5-.5.9-1.2 3.1-1.6 5-.4 1.9-1.2 4-1.7 4.7-.5.7-.7 1.7-.3 2.3.4.7 15.4 1 45.6 1H253v-2.4c0-1.4-.4-2.7-.9-3-.5-.3-1.2-2.2-1.6-4.2-.3-2-1.1-4.4-1.6-5.3-.5-.9-4.5-12.6-9-26.1-11.1-33.8-13.7-40.7-17.7-46.8-5.6-8.6-11.5-11.9-17.7-10.1z"></path>
  <path fill="#fff" d="M1244.7 89.7c-.5.4-5.2 1.1-10.5 1.4-13.1.9-24.5 4.7-35.7 12.1-4.4 2.8-14.9 13.5-18 18.3-5.1 7.6-11.5 25.6-11.5 32.1 0 1.7-.6 3.6-1.2 4.3-1 .9-1.3 18.6-1.3 81.6 0 63 .3 80.7 1.3 81.7.6.6 1.2 2.6 1.2 4.4 0 5.2 3.9 17.2 9.1 27.9 2.9 6 11.7 17.2 14.8 18.9.9.5 2.5 1.7 3.6 2.6 1.9 1.7 4.6 3.3 12.6 7.6 6.6 3.5 16.4 5.7 34.6 7.5 14.6 1.5 36.9-.8 48.8-5.1 3.3-1.1 6.9-2.4 8-2.7 7.7-2.3 25.1-18.4 29.1-26.9 1.4-3 2.9-5.6 3.5-5.9.5-.4.9-1.5.9-2.6s.6-3 1.2-4.2c2.5-4.4 4.7-15 6.8-31.7.5-4.1.9-36.3.9-71.5s-.4-67.4-.9-71.5c-2-16.7-3.8-25.4-6.5-31.5-4.4-10.2-6.2-13.6-9.8-18.4-9.3-12.5-18.8-18.7-38.2-24.8-7.7-2.4-41.2-5.3-42.8-3.6zm21.5 48.5c4.2 2.9 6.9 7.3 8.4 13.6 1.9 8.3 2 167.1 0 175.2-1.6 6.7-3.9 10.7-8 14-2.7 2.3-3.9 2.5-12.6 2.5-12.8 0-15.2-1.7-20.1-14.5-1.1-2.8-1.4-19.8-1.7-83.7-.4-93.1-.2-95.8 7.2-104 3-3.3 5.2-4.8 8.1-5.3 5.9-1.2 15.5-.1 18.7 2.2zM554.7 94.6c-.4.4-.7 65.6-.7 144.9 0 121.1.2 144.4 1.4 145.4.9.8 9.2 1.1 28.2.9l26.9-.3.3-72.3c.2-68.2.6-77.2 2.9-70.5.3 1 2.5 7 5 13.3 2.4 6.3 5.1 13.3 6 15.5.8 2.2 2.1 5.3 2.9 6.8.8 1.6 1.4 3.5 1.4 4.2 0 .7.6 2.6 1.4 4.2 1.9 3.7 4 8.8 6.1 14.3 2.1 5.5 4.2 10.6 6.1 14.3.8 1.6 1.4 3.5 1.4 4.2 0 .8.7 3.1 1.6 5.2 3.2 7.6 4.2 9.9 5.9 14.3 1 2.5 2.3 5.8 3 7.5.7 1.6 2.1 5 3 7.5 1 2.5 2.3 5.8 3 7.5.7 1.6 2.1 5 3 7.5.9 2.5 2.3 6 3.1 7.8.8 1.8 1.4 3.9 1.4 4.6 0 .7.8 2 1.8 2.9 1.6 1.5 4.7 1.7 22.4 1.7 16.1 0 20.8-.3 21.7-1.4.8-1 1-39.8.9-145.7l-.3-144.4h-53L661 163l-.5 68.5-2.2-2.9c-1.3-1.6-2.3-3.4-2.3-4.2 0-.7-.6-2.5-1.4-4.1-.8-1.5-2.1-4.4-2.9-6.3-.8-1.9-2.2-5.2-3.1-7.3-.9-2-2.2-5.2-2.9-7-.8-1.7-2.1-4.8-2.9-6.7-.9-1.9-3.3-7.6-5.3-12.5-2.1-5-4.7-11-5.8-13.5-1.1-2.5-2.8-6.5-3.9-9s-2.5-5.9-3.2-7.5c-.8-1.7-2.1-5-3.1-7.5s-2.4-6.1-3.3-8c-.8-1.9-2.1-4.9-2.8-6.5-.7-1.7-2.2-5-3.3-7.5-5.6-12.8-7.1-16.4-7.1-17.5 0-.7-.6-1.8-1.4-2.5-.8-.6-1.6-2.4-1.8-3.8l-.3-2.7-23.1-.3c-12.7-.1-23.3.1-23.7.4zM799 96.1c-1 1.8-1.7 5.3-4.9 24.4-.5 2.7-1.3 7.2-1.9 10-2.1 9.4-3.3 16-4.2 22-.4 3.3-1.1 6.7-1.4 7.5-.7 1.6-3 14.2-4.6 24-.4 3-1.3 7.3-1.8 9.5-.6 2.2-1.8 8.5-2.7 14-1.8 10.7-3.4 18.8-5.9 30-.9 3.8-1.6 8.5-1.6 10.3 0 1.8-.4 4.1-.9 5-.5 1-1.4 4.9-2 8.7-1.3 9.1-4.2 24.6-7.3 38.5-.5 2.5-1.2 6.7-1.5 9.5-.3 2.7-.9 5.7-1.4 6.6-.4.8-1.1 4-1.4 7-.4 3-1.3 8.3-2 11.9-3.9 18.8-7.5 38.6-7.5 41.3 0 1.3-.5 2.8-1.1 3.4-.7.7-.9 2.3-.5 3.7l.6 2.6h29.4c22.3 0 29.6-.3 30.4-1.3.5-.6 1.2-3.5 1.5-6.2.7-6.7 3.6-24.6 4.3-26.5.4-.8 1-4.7 1.5-8.5.4-3.9 1.4-9.7 2.1-13l1.3-6 20.2-.3 20.2-.2 1.7 2.5c.9 1.4 1.8 4.9 2 7.7.3 2.9.9 6.9 1.4 8.8.5 1.9 1.4 6.9 2 11 2.7 19.9 4 28.2 5 30 1.1 2 2 2 29.8 1.8l28.7-.3-.3-5.5c-.2-3-.8-7.1-1.3-9-.6-1.9-1.4-6.2-1.9-9.5s-1.8-10.7-3-16.5c-1.1-5.8-2.5-12.8-3-15.5-.5-2.8-1.8-10-3-16-1.1-6.1-2.3-13.3-2.7-16-.3-2.8-.9-5.5-1.3-6-.4-.6-1.1-3.7-1.5-7-.4-3.3-1.1-7.6-1.7-9.5-.6-1.9-1.5-6.2-1.9-9.5-.4-3.3-1.2-8-1.7-10.5-.6-2.5-1.8-8.8-2.7-14-.9-5.2-2.2-12.4-3-16-2-9.3-3.5-17.5-4.5-25.2-.5-3.8-1.2-7.3-1.6-8-.8-1.2-3.3-15.5-4-22.8-.3-2.5-.9-5.4-1.4-6.5-.5-1.1-1.7-6.5-2.6-12-.9-5.5-2-12-2.5-14.5-3-15.8-5-27.4-6-33.5-.6-3.9-1.6-7.3-2.3-7.7-.6-.4-17.2-.8-36.8-.8-35.1 0-35.7 0-36.8 2.1zM840.1 198c.6 4.1 1.3 10.4 1.6 14 .2 3.6.8 7.6 1.3 9 .5 1.4 1.4 7.4 2 13.5.6 6 1.5 11.9 2 13 .5 1.1 1.1 5.4 1.4 9.5.2 4.1 1.1 12 2 17.4.8 5.5 1.3 10.4 1 10.8-.3.4-7 .8-15 .8-10.8 0-14.6-.3-14.9-1.3-.3-.7 0-4.2.6-7.7.6-3.6 1.4-10.1 1.8-14.5.5-4.4 1.3-10.7 1.9-14 1.3-7.1 3.2-20.3 4.3-30 2.8-24.1 4.1-32.3 5.4-34.6.8-1.4 1.2-2.9.9-3.2-.3-.3-.2-1.2.2-1.9.6-.8 1.2 1.1 1.6 5.2.4 3.6 1.3 9.9 1.9 14zM957.7 94.7c-.4.3-.7 65.8-.7 145.4 0 131 .1 144.7 1.6 145.3 2.6 1 98.3.7 107.6-.4 11.9-1.4 22.1-4.2 30.3-8.3 7.1-3.6 7.9-4.2 11.6-7.3 2-1.7 4-3.3 4.5-3.5 2.1-.9 10.5-12 13.2-17.5 7.5-14.8 9.7-25.3 9.7-47.9 0-22.9-1.8-31.6-9.4-45-6.2-10.9-20.4-22.2-30.5-24-4.3-.9-6.7-3.2-4.5-4.6.8-.5 2.2-.9 3.1-.9 4.9 0 18.3-10.5 23.7-18.5 1.5-2.2 3.6-6.5 4.5-9.5 1-3 2.3-6.6 2.9-8 .6-1.4 1.3-9.4 1.5-17.7.5-20.1-1.2-29.2-8.8-44.3-5.3-10.6-12.3-17.3-24.4-23.3-10.2-5-15-6.7-21.6-7.8-2.5-.4-7.4-1.2-11-1.8-7.1-1.2-102.2-1.6-103.3-.4zm89.8 44c10.4 2.7 15.8 7.7 20.9 19.6 2.3 5.3 2.2 25.4-.1 32.3-3.3 9.9-8.6 15.6-16.1 17.6-9 2.3-13.7 2.9-21.4 2.6l-8.3-.3-.3-36.8-.2-36.8 10.7.4c6 .2 12.6.9 14.8 1.4zm2.3 116.1c1.5.6 3.9 1.3 5.3 1.6 3.4.7 11 7.6 13 11.7 3.8 7.7 4.4 12.2 4.4 30.4v18l-3.2 6.5c-3.8 7.9-8 12-15.3 15.1-4.8 2.1-7.1 2.4-18.5 2.4h-13l-.3-42.9c-.1-25.2.2-43.2.7-43.5 1.5-1 24-.4 26.9.7z"></path>
</svg>
