<?xml version="1.0" encoding="UTF-8"?>
<svg xmlns="http://www.w3.org/2000/svg" version="1.0" viewBox="93.5 4.46 1159 1339.54">
  <g fill="#d53618">
    <path d="M230.5 4.7c-17.9 1.1-45.5 11.3-62.4 23C128.9 54.9 103.6 97 95.2 149c-1.6 9.8-1.7 46.8-1.7 527.5 0 482.3.1 517.7 1.7 527 5.7 33.5 16.4 59.2 34.9 84 19.6 26.2 43.1 43.6 73 53.9l7.6 2.6h461.9c420.3 0 462.5-.1 467-1.6 2.7-.9 6.3-2.2 8.1-3 1.7-.8 3.5-1.4 4-1.4 2.1 0 24-11.9 29.8-16.2 20.2-15 40.1-39.2 51.6-62.8 8.4-17.3 12.8-31.2 17.6-56 1.7-9.1 1.8-28.8 1.8-527 0-498.9-.1-517.8-1.8-527-4.1-20.9-8.2-35.3-13.4-47-12.5-27.8-25.7-45.9-46.8-64.2-9.8-8.5-8.3-7.4-18.5-13.5-13.6-8.2-21.5-11.6-40.5-17.1l-9-2.6L679 4.5c-243.9-.1-445.7 0-448.5.2zm732 259.9c25.4 9.8 43.7 26.3 55.5 49.9 6.3 12.7 8.4 18.6 11.7 33 1.7 7.6 1.8 22.9 1.8 327.5 0 341.2.2 324.8-4.7 341-7.4 24.2-21 44.5-38.8 57.7-7.3 5.4-15.7 9.9-25.5 13.6-7.9 3-8.2 3-32.7 3.5-24.3.4-24.6.4-25.8-1.8-1.2-2.2-6.6-17.9-10.1-29-1.1-3.6-2.4-7.2-2.8-8-.5-.9-1.2-3.1-1.6-5-.4-1.9-1.1-4.1-1.6-5-.8-1.3-27.5-80.9-35.2-104.5-1.6-5-3.2-9.7-3.7-10.5-.4-.9-1.1-3.1-1.5-5-.4-1.9-1.1-4-1.5-4.5-.4-.6-3.1-8.4-5.9-17.5-4.4-13.7-6.3-19.3-7.7-21.8-.2-.5-318.7-.2-319.2.2-.6.6-11 30.9-12.4 36.1-.6 2.2-1.4 4.4-1.8 5-.4.5-1.1 2.6-1.5 4.5-.4 1.9-1.1 4.1-1.6 5-.4.8-5.8 16.6-11.9 35-6.1 18.4-11.4 34.4-11.9 35.5-.5 1.1-2.5 6.9-4.5 13-7.5 23.4-9.8 30.1-10.6 31.5-.4.9-1.1 3.1-1.5 5-.4 1.9-1.1 4.1-1.6 5-1.3 2.3-10.9 31.9-10.9 33.5 0 .8-.9 1.9-1.9 2.5-2.6 1.3-43.3 1.3-48.6-.1-2.2-.5-5.6-1.4-7.5-1.9-4.6-1.2-17.2-7.4-23.5-11.5-7.6-5-18.7-15.7-24.6-23.7-5.5-7.4-14.9-24.9-14.9-27.8 0-.9-.4-2-.9-2.6-1-1-2.3-5.3-4.9-17.4-1.6-6.9-1.7-33.1-1.7-329s.1-322.1 1.7-329c2.6-12.1 3.9-16.4 4.9-17.5.5-.5.9-1.6.9-2.5 0-3.5 10.4-22.1 16.8-30.1 5.4-6.6 15.4-16.2 22.7-21.8 4-3 21.7-11.1 24.2-11.1 1.1 0 2.3-.4 2.9-.9.5-.5 2.3-1.1 3.9-1.4 1.7-.2 128.8-.4 282.5-.3l279.5.1 8 3.1z"></path>
    <path d="M663 516c-.8.5-3.7 1.9-6.4 3.2-5.2 2.4-15.1 11.4-20.3 18.3-3.3 4.4-15.3 24.1-15.3 25.1 0 .3-1.3 3.5-3 7.1-1.6 3.5-3.3 7.5-3.6 8.9-.3 1.3-1 2.7-1.5 3-.5.3-.9 1.3-.9 2.2 0 .9-.7 3-1.5 4.6-.8 1.5-1.5 3.5-1.5 4.3 0 .8-.6 2.9-1.4 4.6-.8 1.8-2.5 6.8-3.9 11.2-2.9 8.9-7.3 21.9-8.6 25-.5 1.1-3.2 9.4-6.1 18.5-2.9 9.1-5.7 16.9-6.2 17.5-.4.5-.8 1.8-.8 2.8 0 1-.6 3.3-1.4 5-.7 1.8-2.5 6.8-3.9 11.2-6 18.3-11 33.1-11.8 35-.4 1.1-5.1 15-10.4 31-5.2 15.9-9.9 29.9-10.4 31-2.1 5.2-3.4 9.3-3.8 12.2l-.5 3.3h132.5c79.4 0 132.8-.4 133.1-.9.4-.5-3.7-13.9-9.1-29.8-5.3-15.8-10.3-30.8-11.1-33.3-.7-2.5-1.7-5.4-2.2-6.5-.4-1.1-1.8-5.2-3-9-1.1-3.9-2.5-7.9-3-9-.5-1.1-3.2-9.2-6.1-18-2.8-8.8-5.6-16.9-6-18-.5-1.1-4-11.5-7.9-23-8.3-25-9.1-27.4-10.1-30-.4-1.1-1.8-5.2-3-9-1.2-3.9-2.8-8.4-3.5-10.2-.8-1.7-1.4-4-1.4-5.1 0-1.2-.4-2.3-.9-2.7-.5-.3-1.3-1.9-1.6-3.7-.8-3.4-8.5-23-11.3-28.8-12.3-24.9-25.1-39.9-40-46.6-4.1-1.9-6.9-2.4-13-2.3-4.2 0-8.4.4-9.2.9z"></path>
  </g>
</svg>
