<?xml version="1.0" encoding="UTF-8"?>
<svg xmlns="http://www.w3.org/2000/svg" version="1.0" width="80" height="30" viewBox="0 0 640.000000 240.000000" preserveAspectRatio="xMidYMid meet">
  <g transform="translate(0.000000,240.000000) scale(0.100000,-0.100000)" stroke="none">
    <path fill="#d53617" d="M199 2385 c-66 -21 -130 -82 -165 -157 l-29 -63 0 -965 0 -965 29 -63 c19 -40 46 -78 74 -103 82 -72 52 -70 953 -67 l804 3 41 22 c64 34 121 106 144 181 19 62 20 93 20 992 0 899 -1 930 -20 992 -23 75 -80 147 -144 181 l-41 22 -810 2 c-678 2 -817 0 -856 -12z m1370 -463 c19 -9 48 -34 65 -55 l31 -39 0 -628 0 -628 -31 -39 c-41 -51 -88 -74 -143 -71 l-44 3 -62 185 -62 185 -285 3 -285 2 -65 -187 c-62 -181 -66 -188 -93 -191 -74 -9 -139 28 -175 99 -19 37 -20 62 -20 639 0 571 1 603 19 638 22 43 56 77 91 91 15 6 218 10 525 10 457 1 503 -1 534 -17z"></path>
    <path fill="#d53617" d="M980 1451 c-31 -33 -46 -68 -105 -242 -37 -112 -70 -210 -73 -216 -3 -10 47 -13 232 -13 130 0 236 3 236 6 0 23 -145 425 -163 451 -20 30 -55 53 -79 53 -6 0 -28 -17 -48 -39z"></path>
    <path fill="#ffffff" d="M5807 1935 c-149 -38 -228 -117 -267 -270 -18 -72 -20 -111 -20 -465 0 -354 2 -393 20 -465 35 -135 97 -212 209 -257 49 -20 74 -23 206 -23 134 0 156 3 209 24 110 44 183 135 217 271 20 79 20 821 0 900 -35 141 -109 230 -224 270 -81 29 -265 36 -350 15z m202 -229 c50 -26 51 -34 51 -507 0 -373 -2 -444 -15 -469 -19 -37 -43 -50 -95 -50 -48 0 -84 31 -94 81 -10 54 -7 841 4 881 19 68 85 96 149 64z"></path>
    <path fill="#ffffff" d="M2480 1200 l0 -730 140 0 140 0 2 362 3 361 141 -359 142 -359 111 -3 111 -3 0 731 0 730 -135 0 -135 0 -2 -340 -3 -340 -144 340 -144 340 -114 0 -113 0 0 -730z"></path>
    <path fill="#ffffff" d="M3686 1903 c-21 -105 -266 -1411 -266 -1421 0 -10 37 -12 152 -10 l153 3 24 153 25 153 106 -3 105 -3 24 -152 24 -153 148 0 c102 0 149 3 149 11 0 14 -259 1408 -266 1432 -5 15 -23 17 -189 17 l-183 0 -6 -27z m235 -686 c17 -131 29 -240 26 -243 -2 -3 -36 -4 -74 -2 l-69 3 36 263 c21 162 37 254 42 240 4 -13 21 -130 39 -261z"></path>
    <path fill="#ffffff" d="M4480 1199 l0 -731 298 4 c280 4 300 5 353 26 112 45 176 112 216 226 26 76 25 272 -2 345 -27 75 -86 136 -157 165 l-57 22 35 13 c117 42 180 186 155 353 -28 178 -121 266 -313 298 -35 5 -168 10 -295 10 l-233 0 0 -731z m488 484 c56 -42 67 -68 67 -156 -1 -136 -41 -177 -169 -177 l-66 0 0 181 0 182 71 -5 c48 -4 79 -12 97 -25z m0 -573 c62 -28 82 -76 82 -200 0 -80 -4 -101 -23 -135 -30 -54 -75 -75 -159 -75 l-68 0 0 215 0 215 63 0 c40 0 77 -7 105 -20z"></path>
  </g>
</svg>
