<?xml version="1.0" encoding="UTF-8"?>
<svg xmlns="http://www.w3.org/2000/svg" width="16" height="16" viewBox="46.5 52.97 138.58 119.13" fill="none" stroke="currentColor" stroke-width="2">
  <g transform="translate(0,230) scale(0.05,-0.05)" fill="#000000">
    <path d="M1466 3511 c-340 -106 -536 -381 -536 -751 0 -332 3 -337 688 -1026 l573 -576 143 136 c78 75 164 156 190 180 l47 44 109 -54 c165 -81 439 -79 609 4 419 206 543 729 260 1099 -60 78 -69 106 -69 201 0 579 -623 950 -1147 684 l-149 -75 -80 53 c-161 106 -443 142 -638 81z m483 -169 c47 -20 123 -71 169 -113 l84 -75 74 72 c352 343 1044 86 1044 -388 l0 -72 -115 39 c-669 228 -1206 -564 -781 -1150 23 -30 10 -51 -100 -160 l-125 -125 -527 530 c-589 592 -601 611 -600 880 2 438 474 741 877 562z m1285 -715 c420 -198 419 -811 -3 -1017 -236 -116 -556 -39 -698 167 -345 499 156 1107 701 850z" stroke-linejoin="round"></path>
    <path d="M2900 2340 l0 -140 -140 0 -140 0 0 -80 0 -80 140 0 140 0 0 -140 0 -140 80 0 80 0 0 140 0 140 140 0 140 0 0 80 0 80 -140 0 -140 0 0 140 0 140 -80 0 -80 0 0 -140z" stroke-linejoin="round"></path>
  </g>
</svg>
