<?xml version="1.0" encoding="UTF-8"?>
<svg xmlns="http://www.w3.org/2000/svg" id="Layer_1" data-name="Layer 1" viewBox="0 0 2000 608.82">
  <defs>
    <style>.cls-1{fill:#92d7e7}.cls-3{fill:#00bbd6}</style>
  </defs>
  <path d="M244.05 274.39c178.9 73.94 290.72 12.2 477.73-38.1-154.84-24.58-272.8-87-388-131.71C237.15 67 110.41 85 0 115.9v133.39s139.08-18.29 244.05 25.1ZM1179.9 102.68q-36.11 19.71-70.23 34.86c117.21 76.57 151.76 231.6 358.5 67.15 264-210 531.83-83.44 531.83-83.44v-18.57s-397.06-231.03-820.1 0Z" class="cls-1"></path>
  <path d="M1468.17 204.69c-206.74 164.45-241.29 9.42-358.5-67.15-47.24-30.86-107.9-49-198.67-28.29-72.09 16.42-133.94 41.54-189.22 68.46-187 91.08-298.83 202.87-477.73 69-105-78.55-244-45.45-244-45.45v35s367 250.18 791 70.18c384.69-163.31 440.11 70 656.2 204.27 79-50.08 149.5-110.58 219-159.45 37.07-26.08 78.57-37.37 121.88-38.23 40.37-73 98.8-133.2 211.93-132.77v-59S1732.2-5.33 1468.17 204.69Z" style="fill:#5bc9e1"></path>
  <path d="M1788.07 313c69.6-1.39 143.87 24.18 211.93 58.72V180.25c-113.13-.43-171.56 59.75-211.93 132.75ZM820.1 514.68c281.05 153.48 470.73 95.16 627.1-4-216.09-134.26-271.51-367.56-656.2-204.25-424 180-791-70.18-791-70.18v278.43s397.06-231.03 820.1 0Z" class="cls-3"></path>
  <path d="M1788.07 313c-43.31.86-84.81 12.15-121.88 38.23-69.49 48.87-140 109.37-219 159.45a534 534 0 0 0 71.8 37.55c181.58 77.83 194.61-100.52 269.08-235.23Z" class="cls-1"></path>
</svg>
