<?xml version="1.0" encoding="UTF-8"?>
<svg xmlns="http://www.w3.org/2000/svg" id="Layer_1" data-name="Layer 1" viewBox="0 0 150 150">
  <defs>
    <style>.cls-1{fill:#d3d3d3}</style>
  </defs>
  <path d="M0 2.09 22.91 25H25v-2.09L2.09 0H0v2.09zM50 2.09 72.91 25H75v-2.09L52.09 0H50v2.09zM27.09 25 50 47.91V50h-2.09L25 27.09V25h2.09zM0 52.09 22.91 75H25v-2.09L2.09 50H0v2.09zM50 52.09 72.91 75H75v-2.09L52.09 50H50v2.09zM27.09 75 50 97.91V100h-2.09L25 77.09V75h2.09zM0 102.09 22.91 125H25v-2.09L2.09 100H0v2.09zM50 102.09 72.91 125H75v-2.09L52.09 100H50v2.09zM27.09 125 50 147.91V150h-2.09L25 127.09V125h2.09zM100 2.09 122.91 25H125v-2.09L102.09 0H100v2.09zM77.09 25 100 47.91V50h-2.09L75 27.09V25h2.09zM127.09 25 150 47.91V50h-2.09L125 27.09V25h2.09zM100 52.09 122.91 75H125v-2.09L102.09 50H100v2.09zM77.09 75 100 97.91V100h-2.09L75 77.09V75h2.09zM127.09 75 150 97.91V100h-2.09L125 77.09V75h2.09zM100 102.09 122.91 125H125v-2.09L102.09 100H100v2.09zM77.09 125 100 147.91V150h-2.09L75 127.09V125h2.09zM127.09 125 150 147.91V150h-2.09L125 127.09V125h2.09zM22.91 25 0 47.91V50h2.09L25 27.09V25h-2.09zM72.91 25 50 47.91V50h2.09L75 27.09V25h-2.09zM50 2.09 27.09 25H25v-2.09L47.91 0H50v2.09zM22.91 75 0 97.91V100h2.09L25 77.09V75h-2.09zM72.91 75 50 97.91V100h2.09L75 77.09V75h-2.09zM50 52.09 27.09 75H25v-2.09L47.91 50H50v2.09zM22.91 125 0 147.91V150h2.09L25 127.09V125h-2.09zM72.91 125 50 147.91V150h2.09L75 127.09V125h-2.09zM50 102.09 27.09 125H25v-2.09L47.91 100H50v2.09zM122.91 25 100 47.91V50h2.09L125 27.09V25h-2.09zM100 2.09 77.09 25H75v-2.09L97.91 0H100v2.09zM150 2.09 127.09 25H125v-2.09L147.91 0H150v2.09zM122.91 75 100 97.91V100h2.09L125 77.09V75h-2.09zM100 52.09 77.09 75H75v-2.09L97.91 50H100v2.09zM150 52.09 127.09 75H125v-2.09L147.91 50H150v2.09zM122.91 125 100 147.91V150h2.09L125 127.09V125h-2.09zM100 102.09 77.09 125H75v-2.09L97.91 100H100v2.09zM150 102.09 127.09 125H125v-2.09L147.91 100H150v2.09z" class="cls-1"></path>
</svg>
