<?xml version="1.0" encoding="UTF-8"?>
<svg xmlns="http://www.w3.org/2000/svg" version="1.0" viewBox="149 115.07 1044.5 1043.93">
  <path fill="#2370dc" d="M636.5 116.7c-43 4.2-88.7 15.4-121 29.8-1.6.7-5.7 2.5-9 4-62.3 27.9-113.4 68.3-158.6 125.5-12.1 15.4-30.4 44.7-39.8 64-20.3 41.6-29.9 70.7-37.5 114.5-3.7 21.1-4.7 34.1-5.4 64l-.7 31-8 1.1c-4.4.7-10.2 1.5-13 1.9-6.8 1-21.5 6-30 10.2-32.4 16.1-54.9 45.5-62.5 81.9-1.9 9.3-2 13.2-2 94.4s.1 85.1 2 94.4c8.8 42.1 37.4 74.6 77.5 88.1 16.1 5.4 21 5.8 74.2 6.2 43.7.4 49.9.3 55-1.2 9.5-2.8 15.1-7.5 20.8-17.5 2-3.5 2-5.3 2-170V572.5l-2.3-4.3c-3.2-6-9.7-12.2-15.7-15.2-4.6-2.3-6.3-2.5-22.2-2.8l-17.3-.4v-24.1c0-35.1 3.3-60.9 12.1-94.7 5.9-22.5 11.3-36.8 23.5-61.5 10-20.5 12.3-24.5 22.6-40 34.2-51.1 78.6-90.5 133.3-118.4 26.2-13.3 43.2-19.7 70.5-26.5 26.8-6.7 42-9.1 67.9-10.7 20.8-1.2 46.6-.2 64.6 2.6 5 .8 10.4 1.6 12 1.9 17.2 2.6 45.9 10.4 64 17.4 46.1 17.6 93.3 47.8 126 80.7 32.4 32.5 59.8 74.7 77 118.5.9 2.5 2.2 5.6 2.7 7 1.2 2.9 3.6 10.2 4.8 14.5.5 1.6 1.8 6.3 3 10.4 8.1 28.2 12 59.5 12 96.3V550h-15.4c-13.5 0-16.2.3-21.3 2.2-7 2.7-15.1 10.3-18.2 17.1l-2.1 4.6v330.2l2.1 4.6c1.2 2.6 4.5 7 7.3 9.9 7.4 7.3 14.3 9.4 31.2 9.4 9.6 0 12.6.3 13 1.4.3.7-.7 6-2.1 11.7-15.4 61-65.6 111.7-124.8 125.9-19.5 4.6-25.2 5.1-64.2 4.8l-37-.3-2.6-7.5c-1.4-4.1-3.4-9.1-4.4-11-6-11.6-18.6-23.8-30.8-29.9-16-7.9-13.1-7.6-78.2-7.6-51.2 0-58.7.2-63.6 1.7-21.9 6.4-40.3 23.3-48 43.9-2.4 6.5-4.9 19.7-4.9 25.9 0 5.9 2.4 19.4 4.4 24.8 8.5 22.9 25.7 38.6 49.3 45.2 6.9 1.9 10.3 2 62.1 2 51.9 0 55.1-.1 62-2 13.3-3.7 23.7-10 35.5-21.4l4.7-4.6h34.3c64.2 0 86.7-3 123.2-16.4 3.5-1.2 9.2-3.9 17.5-8.1 63.8-32.2 110.4-93.1 123.6-161.5 1.4-7.4 2.9-14.2 3.4-15 .4-.9 2.8-1.8 5.6-2.2 2.7-.3 8.7-1.1 13.4-1.8 37.9-5.2 70.7-28.8 87.7-63.3 4.5-9.1 6.8-15.7 9.6-27.7 2.2-9.4 2.2-10.3 2.2-96.5 0-86.4 0-87.1-2.2-96.1-6.1-25.1-15.6-41.9-33.3-59.3-11.1-10.8-23.5-18.6-40.5-25.4-7.5-3-14-4.5-25.5-6.2-6.3-.9-12.1-2-12.9-2.4-1-.5-1.3-3-1.2-10.6.3-15.1-1.7-53.5-3.4-66.5-2.9-21.8-6.6-40.6-11-56.5-1-3.3-2.1-7.4-2.5-9-.4-1.7-1.8-5.7-3-9-1.1-3.3-2.5-7.4-2.9-9-.8-2.7-1.7-5.3-4.2-11-.5-1.1-2-4.9-3.3-8.5-6-16-19.4-42.7-29.6-59-.5-.8-2.7-4.5-4.9-8.1-5.9-9.7-20-28.7-30.8-41.7-9.1-10.9-30.8-33.4-40.3-41.8-17.6-15.7-44.3-35-65.8-47.7-8.3-4.9-35.4-18.3-44.7-22.2-4.9-2-9.8-4.1-10.7-4.6-4.4-2.3-25.2-9.2-39.8-13.2-49.4-13.6-99.5-18.5-144.5-14zm-314 493.5c.3 1.3.4 59.9.3 130.3l-.3 128h-35c-34.1 0-35.2-.1-41.8-2.3-7.3-2.6-14.9-7.3-21-13.1-4.5-4.2-11.9-15.1-13.7-20.1-3.9-11.2-3.9-12-4-93.7 0-68.6.2-80.1 1.6-86 5.1-22.2 24-40.1 46.4-43.8 4.8-.8 18.3-1.3 37.2-1.4l29.8-.1.5 2.2zm764-.8c4.4.8 9.6 2 11.5 2.8 12.6 4.8 24.5 15.4 30.8 27.5 7.2 14 7.2 13.8 7.2 99.3 0 83.5-.1 85.2-6.2 97.5-7.1 14.4-16.5 22.8-32.9 29.6-5.2 2.2-6.9 2.3-40.8 2.7-28.7.3-35.5.1-36.2-1-.5-.7-.9-58.8-.9-129 0-114.7.2-127.8 1.6-129.2 1.3-1.4 5.4-1.6 29.7-1.6 19.6 0 30.6.5 36.2 1.4zm-368.2 463.7c2.1.5 5.2 2.3 7 3.9 3 2.7 3.2 3.2 3.2 9.8 0 8-1.4 10.3-8 13.3-3.7 1.7-7.5 1.9-49.3 1.9-49.4 0-50.2-.1-54.9-5.8-3.3-3.9-3.2-14.5.1-18.5 4.4-5.4 6.2-5.6 54.1-5.7 27.9 0 45.4.4 47.8 1.1z"></path>
  <path fill="#2370dc" d="M545.1 843.1c-7.7 2.7-11.5 6-15 13-7.7 15.4-2 30 19.6 51 24.5 23.7 52.6 38.6 87.3 46.1 9.2 1.9 13.4 2.2 34.5 2.2 25.5 0 27.8-.3 48.9-6.1 33-9.1 67-31.8 86.7-57.8 6.5-8.7 7.9-12.4 7.9-20.8 0-9.6-2.3-16-8-21.7-11.8-12-31.1-10-43.3 4.3-8.4 9.9-18.7 19.9-25.6 24.6-19.8 13.5-41.9 20.1-67.1 20.1-24.8 0-45.7-6.4-66.5-20.2-6.3-4.2-12.8-10.4-28-27-8.4-9.1-19.7-11.9-31.4-7.7z"></path>
</svg>
