<?xml version="1.0" encoding="UTF-8"?>
<svg xmlns="http://www.w3.org/2000/svg" version="1.0" viewBox="205.29 76.03 919.37 920">
  <path fill="#2370dc" d="M602.2 77.7c-3.9 1.9-9.1 7.6-15.5 17-2.6 3.7-6.2 9-8.2 11.8-6.7 9.5-9.9 14-12.9 18.5-1.7 2.5-3.5 5-4.1 5.7-.5.6-2.6 3.5-4.5 6.3s-5.4 7.8-7.7 11.1c-4.8 6.6-6.1 7-14.2 4.4-2.5-.8-7.5-2.2-11.1-3.1-3.6-.9-8.5-2.2-11-2.9-2.5-.7-7.4-2-11-2.9-3.6-1-8.5-2.3-11-3.1-2.5-.7-7.4-2-11-3-3.6-.9-9-2.3-11.9-3.2-8.8-2.5-16.2-2.8-19.9-.9-6.3 3.3-7.7 6-12.8 25.6-.9 3.6-2.2 8.5-2.9 11-.7 2.5-2 7.4-2.9 11-1 3.6-2.3 8.7-3.1 11.5-.7 2.7-2.1 7.9-3 11.5-1 3.6-2.3 8.5-3 11-.7 2.5-1.6 5.8-2 7.5-1.2 5.4-3 6.5-10.8 6.5-3.9 0-13.6.7-21.6 1.4-13.1 1.4-21.1 2-51.8 4.5-7.8.6-9.7 1.2-12.7 3.5-2 1.5-4.6 4.6-5.7 6.8-2.1 4-2.1 4.3-.6 17.7.9 7.5 2.3 21.7 3.1 31.6.9 9.9 2.3 23.8 3.1 31 1.7 14.9 2.2 13.7-7.5 18.1-3 1.4-7.3 3.4-9.5 4.4-2.2 1-9.2 4.2-15.5 7-6.3 2.9-14.4 6.6-18 8.2-3.6 1.6-8.3 3.8-10.5 4.8-19.3 8.8-21.6 10.2-24.5 14.2-5.2 7.2-5.1 7.9 10.2 39.8 3.3 6.9 7.6 15.9 9.5 20 2 4.1 6.4 13.5 9.9 20.9 6.3 13 6.4 13.5 4.7 15.5-1 1.2-2.2 2.4-2.6 2.7-.5.3-14.3 14-30.8 30.4-21.1 21.1-30.2 30.8-31 33.2-.6 2-.8 5.4-.4 8.1.6 4.6 1.4 5.5 33.6 37.3C257.2 608 272 623 272 623.3c0 .3-1.3 3.1-2.9 6.3-1.6 3.3-4.9 10.2-7.4 15.4-2.4 5.2-6.6 14-9.2 19.5-9 19.1-15.7 33-17.6 36.8-2.5 4.9-2.4 10.3.2 14.7 2 3.4 6.6 7.9 8.1 8 .4 0 4.3 1.6 8.5 3.6 7.4 3.4 13.8 6.4 22.8 10.4 6.9 3.2 17.7 8.1 26 11.9 4.4 2.1 10.2 4.6 12.8 5.7 2.7 1 5.9 2.8 7.2 4 2.2 2 2.2 2.1.9 11.5-.7 5.2-1.3 11.6-1.3 14.4-.1 4.7-1.2 16.7-4.7 50.2-1.3 12.8-1.3 14.6.1 18 3.3 7.9 9.2 11.2 19.8 11.3 3.7 0 13 .6 20.5 1.4 7.5.8 18.1 1.7 23.4 2l9.8.6 13.6-13.4c9.1-9 13.5-13.9 13.1-14.9-.4-1.1-2.9-1.7-9.4-2.1-4.8-.3-16-1.3-24.8-2.1s-19.3-1.7-23.4-1.9c-4.2-.3-8-1.1-8.7-1.8-.9-1-1-3.3-.4-9.8.5-4.7 1.6-16.6 2.5-26.5.9-9.9 2.2-24.1 3.1-31.5.8-7.4 1.4-14.9 1.4-16.6 0-5.3-4.8-10.6-13.1-14.6-14.1-6.7-20.9-9.8-21.4-9.8-.2 0-3.7-1.5-7.7-3.4s-12.9-5.9-19.8-9.1c-6.9-3.1-14.6-6.6-17.2-7.8-2.7-1.2-4.8-2.8-4.8-3.6 0-.7 2.3-6 5-11.7 2.8-5.7 6.8-14.1 8.9-18.6 2.1-4.6 6.2-13.3 9.1-19.3 2.9-6.1 7-14.7 9.1-19.3 4.4-9.2 4.8-13.5 2-19-1.1-2.1-14.6-16-30.5-31.6-15.8-15.3-29.1-28.7-29.6-29.7-.8-1.5 3.8-6.5 29.1-31.6 16.5-16.4 30.7-31 31.5-32.5 1.8-3.5 1.8-10.3-.1-13.6-1.3-2.5-7.5-15.3-17.5-36.7-2.1-4.4-6.7-14.2-10.4-21.8-3.6-7.6-6.6-14.4-6.6-15.3 0-.8 1.1-1.9 2.6-2.4 1.4-.6 4.8-2.1 7.7-3.4 7.6-3.6 26.8-12.3 47.7-21.8 19.8-9 21.7-10.1 24.4-15.5 2-4 2-8.2.2-25.3-1.5-13.9-4.1-41.5-5.2-55.3-.7-9.8-.1-10.7 7.5-10.7 3.1 0 12.8-.6 21.6-1.5 34.2-3.2 50.1-4.5 53.1-4.5 3.8 0 10.8-4.8 12.7-8.7 1.3-2.6 2.4-6.3 6.3-21.6 3.5-13.1 4.6-17.4 5.9-22.2.7-2.8 2.1-7.9 3-11.5 1-3.6 2.4-8.5 3.1-10.9.8-2.5 1.4-5.3 1.4-6.3 0-.9.7-3.6 1.6-5.8 1.7-4.1 1.7-4.1 5.8-3.5 2.2.4 5.9 1.2 8.1 2 2.2.7 6.9 2 10.5 3 6.2 1.5 10.1 2.6 22.5 6 3 .9 7.9 2.2 10.7 3 2.9.8 7.8 2.1 10.8 2.9 3 .8 8.3 2.2 11.7 3.2 5.9 1.6 6.5 1.6 10.7 0 4.3-1.7 7.5-4.7 12.4-11.8 1.3-1.8 4-5.7 6-8.5 2-2.9 6.2-8.9 9.2-13.3 3-4.4 7.8-11.2 10.5-15 2.8-3.9 7-10 9.5-13.6 8.1-11.8 7.3-11.1 11.1-9.1 1.9.9 7.5 4.6 12.4 8.2 5 3.5 10.8 7.7 13 9.2 2.2 1.5 9.4 6.6 16 11.3 30.2 21.2 31 21.6 39 18.1 2.6-1.2 8.2-4.6 12.4-7.6 8.9-6.5 25.2-18.1 34.6-24.5 3.6-2.5 10.1-7.1 14.5-10.3 4.3-3.2 8.7-5.7 9.6-5.5 1.4.3 5.8 5.9 15.9 20.8 1.4 1.9 3.7 5.3 5.3 7.5 1.5 2.2 5.5 7.8 8.7 12.5 19 27.5 20.1 28.9 25.3 31.3 4.2 1.8 5.1 1.9 9.2.7 2.5-.7 6.3-1.6 8.5-2.1s7.2-1.8 11-3c3.9-1.1 8.6-2.4 10.5-2.8 1.9-.5 7.1-1.8 11.5-3.1 16.6-4.6 19.1-5.3 22.5-6.1 1.9-.4 6-1.5 9-2.3 6.5-1.9 8.8-1.4 9.5 2.2.3 1.5 1.3 5.4 2.2 8.7.8 3.3 2.2 8.5 3 11.5.8 3 2 7.7 2.8 10.5.7 2.7 2.1 7.9 3.1 11.5 3.3 12.7 4.6 17.6 6 22.4.8 2.6 1.4 5.6 1.4 6.5.1 3.6 4 10.1 7.9 12.9 3.4 2.4 5.3 3 12.3 3.5 4.6.4 13.3 1.1 19.3 1.6 6.1.5 15 1.3 19.9 1.6l8.8.6 13.4-13.2c7.4-7.3 13.4-14.1 13.4-15 0-1.4-1.3-1.8-7.7-2.3-4.3-.3-15.7-1.2-25.3-2.1-9.6-.9-20.3-1.5-23.7-1.5-7.2 0-8.7-1.1-10.3-7.3-.6-2.3-1.7-6.5-2.5-9.2-.7-2.8-2.1-7.9-3-11.5-1-3.6-2.3-8.5-3-11-.7-2.5-2-7.4-2.9-11-1-3.6-2.3-8.8-3.1-11.5-.7-2.8-2.1-7.9-3-11.5-5.1-19.7-8.3-23.5-19.4-23.5-3.6 0-9.1.8-12.1 1.7-3 .9-8.4 2.4-12 3.4-3.6.9-8.5 2.2-11 2.9-2.5.8-7.4 2.1-11 3.1-3.6.9-8.5 2.2-11 2.9-2.5.7-7.4 2-11 2.9-3.6 1-8.5 2.4-11 3.2-8.6 2.7-9.9 2.2-15.5-5.7-2.7-4-7-10-9.5-13.6-2.5-3.5-6.5-9.3-9-12.9-2.5-3.6-5.6-8.1-7-9.9-1.4-1.9-4.1-5.7-6-8.5-10.9-15.9-15.6-21.6-20-23.9-7.9-4.2-8.2-4-42.5 20-8.2 5.8-18.1 12.7-22 15.4-3.8 2.6-8.6 6-10.5 7.4-1.9 1.4-4.2 3-5.1 3.6-.9.5-2.8 1.9-4.3 2.9-3.3 2.3-5.1 1.6-13.6-4.9-3.2-2.5-6.1-4.5-6.4-4.5-.3 0-4.2-2.6-8.5-5.8-4.4-3.1-9.9-7.1-12.2-8.7-10-7-17.9-12.5-26.4-18.5-13.4-9.4-16.9-10.5-23.3-7.3z"></path>
  <path fill="#2370dc" d="M646 236.6c-15.2 1.9-36 5.9-48 9.2-74.7 20.8-136.4 65-180.1 129.2-20 29.2-37.7 68.6-43.9 97.8-.5 2.4-1.2 4.7-1.4 5.1-.6.9-3.7 17.4-6.3 32.6-2.5 15.6-2.5 66.8 0 83 2.4 15 4.5 25.2 7.4 36.5 1.4 5.2 2.9 10.8 3.3 12.5 3.5 14.8 19.1 51.2 27.7 64.7 1.2 2.1 2.3 4 2.3 4.4 0 1.1 16.7 25.9 22.8 33.8 14.8 19.1 33.6 38.2 53.7 54.4 7.6 6.2 31.8 23.2 33 23.2.2 0 3.6 1.9 7.7 4.3 10 5.9 38.6 19.7 40.8 19.7.5 0 2.4.6 4.2 1.4 7.1 3 13.5 5.2 26.8 8.9 11.8 3.4 22.7 5.6 45.5 9.4 15.5 2.5 62.7 2.5 79.5-.1 21.9-3.3 31.4-5.4 47.5-10.1 5-1.5 10.4-3 12-3.5 1.7-.4 5.5-1.8 8.5-3s6.6-2.5 8-2.9c1.4-.5 5.5-2.2 9.3-3.9 4.9-2.3 6.7-3.6 6.7-5 0-1.1-2.6-7.4-5.7-14.1-4-8.6-6.2-12.1-7.4-12.1-1 0-5.5 1.6-10.1 3.6-17.3 7.5-43.2 14.8-62.3 17.8-39.8 6.2-72.8 5-113.4-3.9-4.1-.9-7.9-1.9-8.4-2.2-.6-.4-2.7-1-4.6-1.4-2-.4-8.1-2.4-13.6-4.4-5.5-2-11.2-4-12.8-4.5-3.1-1-31-14.8-37.7-18.6-11.8-6.8-32-21.3-42.5-30.5-5.6-4.9-22.8-22-29.1-28.9-4.4-4.9-17-21.5-22.4-29.5-6.3-9.5-12.3-20.1-19-34-6.8-13.9-7.9-16.6-12.5-30-1.3-3.9-2.8-8.1-3.3-9.5-2.1-5.2-6.4-23.6-8.6-36-8.4-48.6-3.5-102.1 13.4-146 1.2-3 2.5-6.6 2.9-8 2-6.3 13.5-29.5 19.6-39.5 9-14.7 18.8-28.2 28.9-40 12.9-15.1 35.2-35.9 47.1-44 2.8-1.9 7-4.9 9.5-6.6 15.3-10.9 40.7-23.9 61-31.4 1.9-.7 5.3-1.9 7.5-2.8 2.2-.8 6.7-2.2 10-3.1 3.3-.9 8.3-2.3 11-3.1 5.2-1.5 12.7-3 30-6.1 8.2-1.5 15.4-1.9 40.5-1.9 31.2.1 36.5.5 58.5 5.1 16.3 3.4 47.5 13.1 50 15.5.5.5 1.5.9 2.2.9 1.5 0 24.5 11.3 30.3 14.8 1.9 1.2 4.4 2.6 5.5 3.2 3.9 2 16.9 10.7 25 16.9 7.4 5.5 18.5 15.2 28.5 24.8 8.3 8 7.8 8 15.2 1.1 13.9-12.9 14.9-14 14.3-15.7-.8-2.5-19.2-20-29.4-27.9-1.9-1.5-4.8-3.9-6.5-5.3-4.5-3.8-20.7-14.8-31.2-21.2-10.2-6.1-39.4-20.7-41.6-20.7-.8 0-1.8-.4-2.3-.9-1.7-1.5-22.3-8.5-37-12.5-13.3-3.7-31.6-7.2-48-9.1-16.2-1.9-52.5-1.8-68.5.1z"></path>
  <path fill="#2370dc" d="M605 375.9c-15.1 2.6-31.6 13.8-40.5 27.7-16.6 25.6-12.8 58.9 9.2 80.1 15.2 14.7 37.6 20.8 58.3 15.9 22.1-5.2 39.2-21.3 46.3-43.6 2.9-9.2 2.9-26.8 0-36-6.3-20-20.9-35-40.8-42.2-5.7-2-25.1-3.2-32.5-1.9zm21.6 32c21 7.4 29 30.9 16.4 48.5-3.5 4.8-6.5 7.3-12.7 10.5-6.5 3.3-19.6 3-26.5-.5-5.8-2.9-11.8-8.8-15-14.9-3-5.5-3.2-19-.3-25.5 3.7-8.6 10.4-14.7 19.7-18 6.8-2.5 11.5-2.5 18.4-.1zM669.7 537.8C584.1 623.4 514 694.2 514 695c0 1.8 19.3 21 21.1 21 1.7 0 312.9-311.1 312.9-312.7 0-1.7-19.4-21.3-21.1-21.3-.8 0-71.5 70.1-157.2 155.8zM927.6 411.3c-2.2 1.2-4.9 3.5-6 5l-2.1 2.8-.3 200.2c-.1 136.8-.5 200.4-1.3 201.2-.6.6-8.7 1.2-19.6 1.5l-18.5.5-3.9 4.4c-3.6 4.1-3.9 4.8-3.9 10.5.1 5 .5 6.7 2.8 9.8 5.4 7.4 21.6 28.4 25.7 33.3 2.3 2.7 7.7 9.7 12.1 15.4 4.3 5.6 12.2 15.8 17.4 22.6 5.2 6.7 14 18 19.5 25.1 5.5 7.1 12.7 16.3 16 20.5 3.3 4.2 9.7 12.3 14.3 18.1 10.5 13.4 15.7 16 24.4 12.3 4.2-1.7 5.7-3.4 28.2-32.7 7.9-10.2 20.8-26.8 36.1-46.3 20.2-25.8 40.6-52 49.4-63.7 6.4-8.3 7.8-12.6 6.1-18.7-1.1-4.1-5.1-8.8-8.8-10.2-1.3-.5-9.6-.9-18.5-.9s-16.9-.5-17.7-1c-1.3-.8-1.6-24.7-2-201.4l-.5-200.5-2.1-2.8c-1.1-1.5-3.8-3.8-6-5l-3.9-2.3h-133l-3.9 2.3zm116.8 30.3c1.5.6 1.6 19.2 1.6 200.6 0 200 0 200.1 2.1 203.4 3.5 5.8 7.4 7.4 17.8 7.4 6.2 0 9.1.4 9.1 1.2 0 .9-8 12.2-12.6 17.7-2.3 2.7-25.1 32-34.8 44.5-5 6.6-10.4 13.6-12.1 15.7-1.6 2.1-5.7 7.4-9 11.8-7.4 9.9-8.8 10.2-14.4 2.8-2.2-2.8-7.7-10-12.3-15.9-4.6-5.9-12.6-16.2-17.8-23-5.2-6.7-10.1-13-11-13.9-.8-.9-4-5-7-9-3-3.9-9.4-12.2-14.2-18.3-4.9-6.1-8.6-11.6-8.5-12.1.2-.6 4.6-1.2 9.8-1.5 10.4-.6 13.4-1.9 16.9-7.5 2-3.2 2-4.4 2-202.7 0-153.7.3-199.7 1.2-200.6.9-.9 12.6-1.2 46.4-1.2 24.9 0 45.9.3 46.8.6zM732 597.9c-2.5.4-7.6 2-11.4 3.5-27.5 11.3-43.5 39.9-38.6 69.4 4.9 29.7 31.4 52.2 62 52.4 9.7.1 17.6-1.7 27.5-6.2 9.4-4.4 13.3-7.3 20.8-15.9 11.9-13.7 17.4-32.1 14.8-49.4-3.7-24.6-19.3-43.6-42.7-51.8-6.5-2.2-24.3-3.4-32.4-2zm20.7 31.7c17.9 5.9 27.5 24.1 21.6 40.8-2.2 6.2-9 13.8-15.7 17.7-4.6 2.6-6 2.9-14 2.9s-9.4-.3-14.8-3.2c-15.3-8.2-21.1-25.6-13.7-41.3 3.6-7.6 10.2-13.3 19-16.5 6.6-2.4 11.4-2.5 17.6-.4z"></path>
</svg>
