<?xml version="1.0" encoding="UTF-8"?>
<svg xmlns="http://www.w3.org/2000/svg" version="1.0" viewBox="59.13 66.18 1229.78 1229.72">
  <path fill="#2370dc" d="M328 66.7c-19 1.9-41.4 11-57.5 23.4-17.2 13.3-31.9 34-38.3 53.9-1.1 3.6-2.8 9-3.9 12-1.7 5.3-1.8 21.2-2.1 415-.1 280.6-.6 409.8-1.3 410.5-.7.7-28.5 1.2-83.2 1.5l-82.2.5-.3 103.5c-.2 109.9-.3 107.4 4.4 125 4.9 18.4 15.8 36.3 30.5 50.5 15.1 14.5 32.7 24.7 50.9 29.4 15.9 4.1 5 4 445.5 4 427.2 0 438.1-.1 443.6-3.4.7-.5 2.9-1.2 4.8-1.6 6.6-1.4 16.9-5.8 26.2-11.1 5.7-3.3 17.9-12.7 23-17.8 14.8-14.7 23.8-30.8 31.2-55.4l2.1-7.1.6-410 .5-410 83-.5 83-.5.3-103c.3-111.2.4-109-5-128-7.1-25-27.3-51-50.3-64.7-14.6-8.7-29-13.8-44.6-15.8-5.7-.7-141.9-.9-432.9-.8-233.5 0-426.1.3-428 .5zm852.7 62.4c20.7 3 37.1 17 43.3 37.1 2 6.4 2 8.8 1.8 77.9l-.3 71.4-383.7.3c-364.7.2-383.8.1-384.7-1.5-.5-1.1-.9-31-1-71.8 0-38.5-.5-73.4-1-77.5-1-8.7-3.1-17.2-6.1-25-3.1-7.8-3.3-8.8-2.6-10.5.5-1.3 40.2-1.5 363.5-1.5 264.2 0 365.1.3 370.8 1.1zm-829.1 10c14.8 2.7 29.7 14.3 36.5 28.4l3.4 7 .3 101.1c.2 82.8.5 101.4 1.6 102.3.9.8 92.5 1.2 332.7 1.3l331.4.3.3 404.8.2 404.9-2.1 6.8c-5.2 17.2-20.3 31.4-37.9 35.6-4.5 1.1-72.2 1.3-372.4 1.4-201.8 0-367.1-.2-367.4-.4-.2-.3.7-3.3 2.1-6.8 4-10.1 6.7-18.5 6.7-21.2 0-1.4.6-3.7 1.3-5.3.9-2.2 1.3-107.9 1.7-513.3l.5-510.5 4.2-8.6c10.4-21.3 32.8-32.2 56.9-27.8zm-127.7 907.3c.9 1 1.1 20.4.9 74.7l-.3 73.4-2.3 5.3c-7.1 16.9-21.3 28.5-39.2 32.2-3.6.7-7.4 2.1-8.6 3.1-2.5 2.3-5.1 2.4-12.9.4-8.6-2.1-15.8-6.1-23-12.8-7.2-6.5-11.8-13.8-14.6-23-1.8-5.8-1.9-10.6-1.9-79.9 0-58 .3-73.7 1.3-74.1.6-.3 23.3-.6 50.3-.6 40.8-.1 49.4.1 50.3 1.3z"></path>
  <path fill="#2370dc" d="M425.2 442.2c-1.7 1.7-1.7 58.9 0 60.6.9.9 62.1 1.2 269.4 1.2 242.5 0 268.4-.2 269.8-1.6 1.4-1.3 1.6-5.4 1.6-29.5 0-17.4-.4-28.8-1-30-1.1-1.9-5.1-1.9-269.8-1.9-207.7 0-269.1.3-270 1.2zM425.2 567.2c-1.7 1.7-1.7 58.9 0 60.6 1.7 1.7 537.9 1.7 539.6 0 1.6-1.6 1.7-57 .2-59.9-1.1-1.9-5.1-1.9-269.8-1.9-207.7 0-269.1.3-270 1.2zM567 693c-13.8 2-18.4 3-31.3 7.2-9 2.9-26.9 10.8-32.2 14.3-21.9 14-22.8 14.7-38 30-22.4 22.4-35.7 45.2-44.8 76.5-5.5 18.9-7.6 40.6-5.8 61.2 1.7 19.6 3.8 29.3 10.4 47.6 3.3 9.1 3.4 8.3-2.2 17.7-1.6 2.7-4.2 7.2-5.7 10-1.4 2.7-3.5 6.2-4.5 7.6-1 1.5-2.3 3.7-2.9 5-.6 1.3-1.9 3.7-3 5.4-1 1.6-2.5 4.1-3.3 5.5-2.9 5.4-25.2 43.7-27.4 47.2-1.2 2.1-2.3 4-2.3 4.2 0 .3-3.4 6.2-7.5 13.1-4.1 7-7.5 12.9-7.5 13 0 .2-4 7.2-9 15.6-4.9 8.3-9 15.3-9 15.5 0 .2-1.8 3.3-4.1 7-2.2 3.6-3.9 7.3-3.7 8.3.4 2 6.4 2.9 19.8 3 5.2.1 18.1.7 28.5 1.5 10.5.8 27.8 2 38.5 2.7 10.7.7 23.9 1.5 29.2 1.8 5.3.3 10.1 1 10.6 1.6.5.5 10.1 14.9 21.4 32 11.2 17 26.5 40.1 33.8 51.2 7.4 11.2 14 20.3 14.7 20.3 1.1 0 6.3-7 6.3-8.4 0-.2 2.7-5 6-10.6s6-10.3 6-10.5c0-.2 3.4-6.1 7.5-13 4.1-7 7.5-12.8 7.5-13 0-.2 1.9-3.6 4.3-7.7 2.4-4 5.6-9.6 7.1-12.3 7-12.6 16.1-27.5 16.8-27.5.7 0 3.4 4.5 22.9 38 4.6 7.9 8.9 15.4 9.6 16.5.7 1.1 1.6 2.7 2 3.5.9 1.9 12 21 13.3 23 .6.8 1.3 2.2 1.7 3 .4.8 2.4 4.4 4.6 7.9 2.1 3.5 4.3 7.5 4.8 8.8 1.1 3 4.5 3 6 0 1.3-2.4 10.3-16.3 29.5-45.2 6.5-9.9 12.1-18.4 12.4-19 .3-.5 6-9.4 12.8-19.6l12.3-18.6 5.2-.6c2.9-.3 13.3-1.1 23.2-1.7 18.8-1.1 52.4-3.2 80.5-5 9-.6 16.9-1.5 17.4-2 .9-.9-.5-4.8-3.4-9-1.6-2.4-16-27.1-16-27.5 0-.2-3.4-6-7.5-12.9s-7.5-12.8-7.5-13c0-.2-3.4-6.1-7.5-13.1-4.1-6.9-7.5-12.8-7.5-13 0-.3-14.1-24.6-16-27.5-.6-.8-1.3-2.2-1.7-3-.4-.8-4-7-8-13.8-4-6.8-7.3-12.5-7.3-12.7 0-.2-2.7-4.9-6.1-10.6-6.7-11.2-6.7-11.4-2.9-20.9 2.5-6.3 4.2-12.5 7.2-26 1.9-8.3 2.2-12.5 2.2-33.5.1-21.3-.2-25.2-2.3-34.8-8.6-40.8-28.5-74.3-59.6-100.7-17-14.4-40.6-27.6-59-33-13.7-4-19.7-5.4-31.5-7-16.4-2.4-31.4-2.4-48 0zm48.6 63.3c22.1 5.2 41.8 16.1 57.6 32.1 9.8 9.9 15.9 18.5 21.2 29.8 8.2 17.4 9.5 22.3 12.1 45.8 1.1 10.1-2.6 34.5-6.5 42.4-1.1 2.3-2 4.5-2 4.8 0 1.4-12.3 21.4-16.4 26.6-17.6 22.5-39.1 35.9-68.8 42.7-7.5 1.8-32 2.1-40.3.6-2.7-.5-7.7-1.4-10.9-2-3.3-.6-6.4-1.5-7-2.1-.5-.5-1.7-1-2.6-1-3 0-20.8-9.6-28.4-15.3-11.5-8.7-23.1-21.4-30.3-33.2-3.9-6.5-10.7-20.5-12.3-25.4-8.4-26.3-5.5-59.5 7.4-84.5 9.3-18.3 24.9-35.4 42.1-46.4 4.1-2.6 20.5-10.3 25.2-11.8 13.4-4.2 22.4-5.4 38.3-4.9 8.5.2 18.2 1.1 21.6 1.8zM478 1005.1c6.4 5.3 9.1 7.3 17.3 12.9 6.4 4.3 22.4 12.5 30.2 15.5 3.9 1.4 8.6 3.3 10.5 4 1.9.8 4.9 1.7 6.5 2 1.7.3 3.7 1.1 4.6 1.8 2.6 2 6.9 9.5 6.9 12.1 0 1.3-3.4 8.1-7.5 15.1-4.1 6.9-7.5 12.8-7.5 13 0 .2-1.9 3.6-4.3 7.7-2.4 4-4.6 8.1-5 9-.3.9-1.5 2.1-2.6 2.7-1.7.9-2.3.5-4.8-3.5-1.5-2.6-3.5-5.7-4.3-6.9-.8-1.2-3.4-5.3-5.8-9.1-2.3-3.8-7.2-11.4-11-16.9-6.2-9.3-7-10-10.7-10.6-6.1-1-34-2.9-43-2.9-11 0-11.4-.4-7.5-7.6 1.8-3.3 3.9-6.6 4.6-7.5.8-.8 1.4-1.8 1.4-2.1 0-.9 19.1-33.1 20.8-35.1 1.3-1.4 1.8-1.5 3.1-.4.9.7 4.5 3.8 8.1 6.8zm240.9-2.1c1.7 2.8 3.1 5.2 3.1 5.4 0 .3 1.9 3.7 4.3 7.8 2.4 4 5.7 9.8 7.4 12.8 1.7 3 5.1 9 7.7 13.2 2.7 4.6 4.1 8 3.5 8.4-1.4.8-35.3 3.3-45.4 3.4-5.5 0-8.7.5-10.2 1.5-1.2.8-8.7 11.4-16.7 23.5-8.1 12.2-15.3 22-16.1 22-1.2 0-6.5-6.8-6.5-8.4 0-.2-3.4-6.3-7.5-13.6s-7.5-13.4-7.5-13.6c0-.3-1-2.1-2.3-4.2-4.3-6.7-8.7-15.3-8.7-16.7 0-1.5 1.1-2 8-3.4 9.5-2 13.8-3.5 29.5-9.9 6.1-2.5 11.7-5.1 12.6-5.8.8-.8 2-1.4 2.5-1.4 1.8 0 21.8-13.6 29.2-19.8 4.1-3.4 8-6.2 8.7-6.2.7 0 2.7 2.3 4.4 5z"></path>
</svg>
