<?xml version="1.0" encoding="UTF-8"?>
<svg xmlns="http://www.w3.org/2000/svg" version="1.0" viewBox="142.5 252.64 628.04 348.66" width="24" height="13">
  <path d="M169 253c-9.5 1.5-18.4 7.9-23.5 17.1-2.8 5-3 6.2-3 15.4 0 9.3.2 10.4 3 15.2 3.5 6.1 4.1 6.7 169 172.3 95.3 95.6 123.2 123.1 127.4 125.4 4.7 2.5 6.4 2.8 14 2.9 7.3 0 9.4-.4 14.4-2.8 6.5-3.1-3.4 6.6 124.7-122.1C741.7 329.1 765.5 304.8 768 300c3.3-6.2 3.4-21.2.2-28-3.2-6.8-8.4-12.3-15.2-15.9-5.7-3-6.9-3.3-15.1-3.3-8 0-9.4.3-14.8 3.2-5 2.7-26.4 23.8-135.7 133.6C516.1 461.3 457.2 520 456.5 520c-.7 0-59.9-58.9-131.6-130.9-103.4-103.7-131.4-131.4-135.4-133.3-5.5-2.7-13.5-3.8-20.5-2.8z"></path>
</svg>
