<?xml version="1.0" encoding="UTF-8"?>
<svg xmlns="http://www.w3.org/2000/svg" version="1.0" viewBox="120.04 70.61 1045.94 947.21">
  <path fill="#2370dc" d="M802.5 70.7c-7.6.5-21 2.6-29 4.6-8.8 2.2-24.8 8.7-31 12.6-2.2 1.4-4.8 3-5.7 3.6-14.1 8.5-29.2 23.4-39.5 39-3.3 5.1-5.7 9.3-10.3 18.4-.4.9-1.5 3.4-2.3 5.6-.8 2.2-2.4 6.2-3.5 9l-2.1 5-268.3.5-268.3.5-5.8 2.8c-12.7 6.3-19.3 22.1-15.6 37.7 2.7 11.4 9.8 19 20.9 22.4 2.4.7 85.6 1.2 270.4 1.6l266.9.5L683 245c11.6 32.7 33.6 57.3 65.7 73.4 5.6 2.8 10.4 4.6 19.8 7.5 23.6 7.3 52.4 7.5 76 .4 33.4-9.9 64-35.9 79.9-67.8 3.7-7.4 7.2-15.7 7.9-18.7 1.6-6.2-5.9-5.8 104.5-5.8 109.9-.1 107.9 0 116.4-5.8 5.4-3.7 8.9-8.2 11.3-14.4 2.3-6.3 1.7-22.5-1.1-28-3.1-5.8-8.2-10.8-14.3-13.7l-5.6-2.6-104.5-.5-104.5-.5-1.4-4.5c-2.5-8.1-6-17.2-8.2-21-.4-.8-1.8-3.5-3-5.8-6-12.1-24.4-32.7-36.2-40.7-10.3-7-11-7.4-20.2-11.9-14.1-7-25.5-10.4-41.5-12.5-10.3-1.3-16.2-1.7-21.5-1.4zm20.3 66.9c23.6 6.9 40 22.7 47.2 45.5 2.5 8.2 2.8 26.8.4 35-9.8 33.7-42.2 54.1-75.9 47.5-33.7-6.5-57.1-39-52.5-72.8 1.2-8.7 1.9-11 6-19.8 4.7-10.2 18.2-24.9 26-28.3.8-.4 2.2-1.1 3-1.6 11-6.6 33-9.2 45.8-5.5zM393 416c-1.9.4-6 1.3-9 1.9-8.2 1.6-13.8 3.6-26.3 9.5-27.7 13-51 37.4-63.8 66.6-2.3 5.2-5 11.4-6 13.7L286 512h-68.2c-74.8.1-75.7.1-84.6 5.9-5.6 3.6-8.8 8.1-11.3 15.8-5.3 15.8 1.2 33.3 14.8 40l5.8 2.8 71.9.5 71.9.5 2.9 8c1.6 4.4 3.3 9.1 3.8 10.5 1.7 5.3 7.3 15.1 14.5 25.7 3.6 5.3 16.5 19 22.6 23.8 14 11.3 33.3 21 50.7 25.5 21.6 5.6 45 5.5 66.7-.1 16.1-4.2 26.1-9 44.6-21.3 10-6.7 28.5-27.6 35.5-40.1 4.5-8.2 7.3-13.8 9.2-19 1.3-3.3 3.1-7.6 4-9.5l1.7-3.5 301-.5 301-.5 4.8-2.4c5.5-2.7 11.3-8.4 14.1-13.9 2.8-5.5 3.5-21.7 1.1-28-3.7-9.6-11.4-16.4-21.3-18.8-4.7-1.1-56.7-1.3-303-1.4H543l-2-3.3c-1.1-1.7-2-4-2-5 0-2.3-1.6-6.1-8.1-19.3-11.7-23.6-34-45.2-59-57.1-6.2-3-19-7.4-29.9-10.3-5.4-1.4-43.9-2.2-49-1zm33.2 64.5c16.1 3.2 27.6 10 38.3 22.6 5.8 6.9 9.1 12.8 12.6 22.9 1.8 5.4 2.2 8.6 2.2 18.5 0 15.4-2.3 23.5-10.5 36.5-3.1 4.9-14.6 17-16.2 17-.5 0-1.7.6-2.5 1.4-2.8 2.5-12 6.7-19.1 8.7-4.8 1.3-10.2 1.9-17.2 1.9-28.2 0-52-17.3-62-45-2-5.6-2.3-8.4-2.3-20.5 0-15.1.5-17.4 6.9-30.4 3.7-7.7 13.5-18.5 21.4-23.7 14.6-9.8 31.7-13.3 48.4-9.9zM800 757.6c-26.7 3-46 9.4-63.5 21-10.9 7.3-12 8.1-19.1 15-16.2 15.8-26 30.6-34.8 52.9l-3.5 9-268.3.5-268.3.5-6 3c-16.6 8.4-21.7 32.2-10.4 49 2.7 4.1 10.2 9.2 15.7 10.8 2.7.8 78.5 1.3 270.6 1.7l266.9.5 2.4 7c2.9 8.7 3.2 9.4 7.4 18 13.7 28.4 40.7 52.5 71.4 63.7 9.6 3.6 11.2 4.1 15.5 4.8 2.5.4 7.2 1.3 10.5 2 7.3 1.5 42 .8 48-1 2.2-.6 6.5-1.8 9.5-2.7 17.9-5.2 36.5-15.7 50.9-28.8 12.8-11.5 27-32.1 34-49 1.8-4.4 3.9-9.5 4.7-11.3l1.4-3.2h100.7c79.1-.1 102.1-.4 106.9-1.4 10.3-2.2 18.1-8.9 21.9-18.8 2.5-6.6 1.7-22.5-1.4-28.3-3.3-6.2-7.1-10.1-13.1-13.2l-5.5-2.8-105-.5c-57.7-.3-105-.6-105.1-.8 0-.1-.7-2.1-1.3-4.5-6.3-21-16.7-38.3-32.6-54.2-20.8-20.8-45.4-33-75-37.4-8.7-1.3-20.9-2-25.5-1.5zm24 67.3c22.1 6.1 39.1 23 46 45.3 2.6 8.5 2.8 26.2.4 34.6-4.5 15.9-14 29.1-27.6 38.1-9.6 6.5-24.5 11.1-35.8 11.1-10.5 0-25.5-4.4-34.5-10.1-21.9-13.9-34.2-39.9-30.5-64.7 1.3-8.9 2-11 7.3-21.9 7.1-14.5 22.9-27.3 40.1-32.3 8.7-2.6 25.4-2.6 34.6-.1z"></path>
</svg>
