<?xml version="1.0" encoding="UTF-8"?> <svg xmlns="http://www.w3.org/2000/svg" id="Icons" style="enable-background:new 0 0 32 32" version="1.1" xml:space="preserve" height="36" viewBox="2 2 29.02 28"><style>.st0{fill:none;stroke:#0b9d06;stroke-width:2;stroke-linecap:round;stroke-linejoin:round;stroke-miterlimit:10}</style><path class="st0" d="M29.2 18.9c-1.1-1.2-2.9-1.2-4 0l-1.7 1.7-1.7-1.7c-1.1-1.2-2.9-1.2-4 0s-1.1 3 0 4.2l1.7 1.7 4 4.2 4-4.2 1.7-1.7c1.1-1.2 1.1-3.1 0-4.2zM9 13V7c0-2.2 1.8-4 4-4h0c2.2 0 4 1.8 4 4v6"></path><path class="st0" d="M23 29H3L5 9h16l2 11"></path><path style="fill:none" d="M-288-144h536v680h-536z"></path></svg> 