<?xml version="1.0" encoding="UTF-8"?> <svg xmlns="http://www.w3.org/2000/svg" width="36" viewBox="79.78 48 352.45 416"><path fill="#232f3e" d="M424.225 48H129.834a7.998 7.998 0 0 0-8 8v298.46a134.717 134.717 0 0 1-39.715 95.884A8 8 0 0 0 87.775 464H382.17a8.001 8.001 0 0 0 5.656-2.344 150.603 150.603 0 0 0 44.399-107.195V56a7.998 7.998 0 0 0-8-8Zm-8 306.46A134.68 134.68 0 0 1 378.803 448H105.565a150.447 150.447 0 0 0 32.27-93.54V64h278.39Z"></path><path fill="#232f3e" d="M185.272 164.766h183.515a8 8 0 0 0 0-16H185.272a8 8 0 0 0 0 16ZM185.272 218.969h183.515a8 8 0 0 0 0-16H185.272a8 8 0 0 0 0 16ZM185.272 273.172h183.515a8 8 0 0 0 0-16H185.272a8 8 0 0 0 0 16ZM185.272 327.375h183.515a8 8 0 0 0 0-16H185.272a8 8 0 0 0 0 16Z"></path></svg> 