<?xml version="1.0" encoding="UTF-8"?> <svg xmlns="http://www.w3.org/2000/svg" xml:space="preserve" width="36" viewBox="1.1 2 29.8 28"><g fill="#232f3e"><path fill="#232f3e" d="M16.017 30a.504.504 0 0 1-.259-.072l-8.489-5.132a.499.499 0 0 1-.241-.428v-2.837a.5.5 0 0 1 1 0v2.555l7.989 4.83 7.99-4.83v-2.555a.5.5 0 0 1 1 0v2.837a.5.5 0 0 1-.241.428l-8.49 5.132a.504.504 0 0 1-.259.072z"></path><path fill="#232f3e" d="M10.072 23.607a.495.495 0 0 1-.275-.083L1.325 17.95a.5.5 0 0 1-.039-.807l5.858-4.729a.501.501 0 0 1 .578-.035l8.542 5.316a.497.497 0 0 1 .234.389.496.496 0 0 1-.177.418l-5.928 4.987a.49.49 0 0 1-.321.118zm-7.625-6.116 7.588 4.994 5.116-4.304-7.656-4.765-5.048 4.075z"></path><path fill="#232f3e" d="m7.723 13.228-.528-.849 7.957-4.952-5.116-4.305-7.589 4.994 3.454 2.788a.5.5 0 1 1-.628.778L1.286 8.464a.5.5 0 0 1 .039-.807l8.472-5.575a.5.5 0 0 1 .597.035l5.928 4.987a.5.5 0 0 1-.057.807l-8.542 5.317zM21.928 23.607a.505.505 0 0 1-.322-.117l-5.928-4.987a.5.5 0 0 1 .057-.807l8.542-5.317a.5.5 0 0 1 .578.035l5.858 4.729a.502.502 0 0 1-.039.807l-8.472 5.575a.496.496 0 0 1-.274.082zm-5.079-5.426 5.116 4.304 7.588-4.994-5.048-4.076-7.656 4.766z"></path><path fill="#232f3e" d="M24.542 13.303a.496.496 0 0 1-.264-.076l-8.542-5.315a.497.497 0 0 1-.234-.389.496.496 0 0 1 .177-.418l5.928-4.988a.502.502 0 0 1 .597-.035l8.472 5.575a.5.5 0 0 1 .039.807l-5.858 4.728a.5.5 0 0 1-.315.111zm-7.693-5.876 7.656 4.764 5.048-4.075-7.588-4.994-5.116 4.305z"></path></g></svg> 