<?xml version="1.0" encoding="UTF-8"?> <svg xmlns="http://www.w3.org/2000/svg" data-name="Layer 1" width="36" viewBox="57.78 70.33 396.42 371.26"><path fill="#232f3e" d="M396.78 196.67a5.15 5.15 0 0 0-7.55-7c-.35.37-8.68 8.94-25.15 8.94S339.29 190 339 189.68a5.16 5.16 0 0 0-7.58 7c.46.49 11.52 12.22 32.69 12.22s32.21-11.74 32.67-12.23Z"></path><path fill="#232f3e" d="M397.74 237a72 72 0 0 0 39-64v-53.2a49.52 49.52 0 0 0-49.46-49.47H340.9a49.52 49.52 0 0 0-49.46 49.47V173a72.06 72.06 0 0 0 39.72 64.33 75.18 75.18 0 0 0-53.05 54.87l-7.91-17.73a28.55 28.55 0 0 0-26.06-16.91H74.56a16.78 16.78 0 0 0-15.33 23.61l64 143.5a28.56 28.56 0 0 0 26.06 16.92H412.2a42.08 42.08 0 0 0 42-42v-90A75 75 0 0 0 397.74 237Zm-18.4 8c1.86 0 3.69.1 5.51.25v3.11a21.08 21.08 0 0 1-42.15 0v-2.81a64.53 64.53 0 0 1 8.3-.55h28.37ZM340.9 80.68h46.37a39.2 39.2 0 0 1 39.16 39.16v19.3a32.74 32.74 0 0 1-25.28-20.9 5.15 5.15 0 0 0-8.21-2c-.09.08-9.64 8.09-28.86 8.09s-28.79-8-28.86-8.09a5.15 5.15 0 0 0-8.21 2 32.7 32.7 0 0 1-25.27 20.88v-19.28a39.2 39.2 0 0 1 39.16-39.16ZM301.74 173v-23.44c8-1.11 23.19-5.44 32.21-21.88 5.67 3.09 15.7 7 30.13 7s24.46-3.9 30.14-7c9 16.43 24.2 20.74 32.21 21.86V173a61.75 61.75 0 0 1-61.67 61.67h-1.35A61.75 61.75 0 0 1 301.74 173Zm-15.36 136.6a64.7 64.7 0 0 1 46-61.86v.63a31.38 31.38 0 1 0 62.75 0V247a64.69 64.69 0 0 1 48.78 62.62V333h-33.84v-32.1a5.15 5.15 0 0 0-10.3 0v85.82h-79.53l-34-76.15a5.15 5.15 0 0 0 .14-.97Zm23.8 121.72h-160.9a18.26 18.26 0 0 1-16.65-10.8L68.64 277a6.48 6.48 0 0 1 5.92-9.12h169.58a18.24 18.24 0 0 1 16.65 10.81l51.35 115.14v.08l12.61 28.28a6.47 6.47 0 0 1-5.91 9.11Zm102 0h-77.83a16.7 16.7 0 0 0-.16-13.31l-9.36-21h80.09a5.15 5.15 0 0 0 5.15-5.15v-48.54h33.86v56.28a31.76 31.76 0 0 1-31.73 31.72Z"></path><path fill="#232f3e" d="M196.71 322.35c-26.8 0-47.8 12-47.8 27.26s21 27.26 47.8 27.26 47.8-12 47.8-27.26-21-27.26-47.8-27.26Zm0 44.21c-22.1 0-37.5-8.93-37.5-16.95s15.4-17 37.5-17 37.5 8.94 37.5 17-15.4 16.95-37.5 16.95ZM335.18 171.65a5.15 5.15 0 0 0 5.15-5.15v-12.33a5.15 5.15 0 1 0-10.3 0v12.33a5.15 5.15 0 0 0 5.15 5.15ZM393 171.65a5.15 5.15 0 0 0 5.15-5.15v-12.33a5.15 5.15 0 1 0-10.3 0v12.33a5.16 5.16 0 0 0 5.15 5.15Z"></path></svg> 